<?xml version="1.0" encoding="UTF-8"?>
<svg id="Layer_2" xmlns="http://www.w3.org/2000/svg" version="1.1" viewBox="0 0 1495.6 233.65">
  <!-- Generator: Adobe Illustrator 30.1.0, SVG Export Plug-In . SVG Version: 2.1.1 Build 136)  -->
  <defs>
    <style>
      .st0 {
        fill-rule: evenodd;
      }

      .st0, .st1 {
        fill: currentColor;
      }
    </style>
  </defs>
  <g>
    <path class="st1" d="M314.3,67.53h30.42c7.37,0,14.37.82,21,2.47,6.63,1.65,12.42,4.31,17.35,7.99,4.94,3.69,8.86,8.47,11.77,14.37,2.9,5.89,4.35,13.04,4.35,21.45,0,7.45-1.41,14.02-4.22,19.69-2.82,5.68-6.61,10.44-11.38,14.3-4.77,3.86-10.27,6.78-16.51,8.77-6.24,2-12.79,2.99-19.63,2.99h-33.15v-92.04ZM334.58,140.85h10.53c4.68,0,9.04-.48,13.07-1.43,4.03-.95,7.52-2.54,10.46-4.75,2.95-2.21,5.26-5.11,6.96-8.71,1.69-3.6,2.54-8,2.54-13.19,0-4.51-.84-8.43-2.54-11.77-1.69-3.34-3.96-6.09-6.83-8.25-2.86-2.17-6.22-3.79-10.08-4.88-3.86-1.08-7.91-1.62-12.15-1.62h-11.96v54.6Z"/>
    <path class="st1" d="M467.7,148.65c-3.12,3.99-7.06,7.06-11.83,9.23-4.77,2.17-9.71,3.25-14.82,3.25s-9.42-.78-13.71-2.34c-4.29-1.56-8.02-3.79-11.18-6.7-3.17-2.9-5.66-6.39-7.48-10.46-1.82-4.07-2.73-8.62-2.73-13.65s.91-9.58,2.73-13.65c1.82-4.07,4.31-7.56,7.48-10.46,3.16-2.9,6.89-5.13,11.18-6.69s8.86-2.34,13.71-2.34c4.51,0,8.6.78,12.29,2.34,3.68,1.56,6.8,3.79,9.36,6.69,2.55,2.9,4.53,6.39,5.92,10.46,1.38,4.07,2.08,8.62,2.08,13.65v6.11h-45.24c.78,3.73,2.47,6.69,5.07,8.9,2.6,2.21,5.81,3.32,9.62,3.32,3.21,0,5.92-.72,8.12-2.15,2.21-1.43,4.14-3.27,5.79-5.53l13.65,10.01ZM451.19,120.83c.08-3.29-1-6.11-3.25-8.45-2.25-2.34-5.16-3.51-8.71-3.51-2.17,0-4.08.35-5.72,1.04-1.65.69-3.05,1.58-4.22,2.67-1.17,1.08-2.08,2.34-2.73,3.77-.65,1.43-1.02,2.93-1.1,4.48h25.74Z"/>
    <path class="st1" d="M519.57,151.64h-.26c-2.17,3.38-5.05,5.81-8.65,7.28-3.6,1.47-7.39,2.21-11.38,2.21-2.95,0-5.78-.41-8.51-1.23-2.73-.82-5.13-2.06-7.21-3.71-2.08-1.65-3.73-3.68-4.94-6.11-1.21-2.43-1.82-5.24-1.82-8.45,0-3.64.67-6.72,2.01-9.23,1.34-2.51,3.16-4.59,5.46-6.24,2.3-1.65,4.92-2.92,7.87-3.83,2.95-.91,6-1.58,9.17-2.01,3.16-.43,6.33-.69,9.49-.78,3.16-.09,6.09-.13,8.77-.13,0-3.47-1.23-6.22-3.71-8.25-2.47-2.04-5.39-3.06-8.77-3.06s-6.13.67-8.78,2.02c-2.64,1.34-5,3.19-7.08,5.52l-10.4-10.66c3.64-3.38,7.89-5.92,12.74-7.6,4.85-1.69,9.88-2.54,15.08-2.54,5.72,0,10.42.72,14.11,2.15,3.68,1.43,6.63,3.53,8.84,6.31,2.21,2.77,3.75,6.17,4.62,10.21.87,4.03,1.3,8.69,1.3,13.98v32.11h-17.94v-7.93ZM514.76,131.88c-1.47,0-3.32.06-5.53.19s-4.33.5-6.37,1.1c-2.04.61-3.77,1.52-5.2,2.73-1.43,1.21-2.14,2.9-2.14,5.07,0,2.34,1,4.07,2.99,5.2,1.99,1.13,4.07,1.69,6.24,1.69,1.91,0,3.75-.26,5.52-.78,1.78-.52,3.36-1.26,4.75-2.21,1.39-.95,2.49-2.17,3.32-3.64.82-1.47,1.23-3.21,1.23-5.2v-4.16h-4.81Z"/>
    <path class="st1" d="M547.39,61.29h19.5v98.28h-19.5V61.29Z"/>
    <path class="st1" d="M638.13,148.65c-3.12,3.99-7.06,7.06-11.83,9.23-4.77,2.17-9.71,3.25-14.82,3.25s-9.42-.78-13.71-2.34c-4.29-1.56-8.02-3.79-11.18-6.7-3.17-2.9-5.66-6.39-7.48-10.46-1.82-4.07-2.73-8.62-2.73-13.65s.91-9.58,2.73-13.65c1.82-4.07,4.31-7.56,7.48-10.46,3.16-2.9,6.89-5.13,11.18-6.69s8.86-2.34,13.71-2.34c4.51,0,8.6.78,12.29,2.34,3.68,1.56,6.8,3.79,9.36,6.69,2.55,2.9,4.53,6.39,5.92,10.46,1.38,4.07,2.08,8.62,2.08,13.65v6.11h-45.24c.78,3.73,2.47,6.69,5.07,8.9,2.6,2.21,5.81,3.32,9.62,3.32,3.21,0,5.92-.72,8.12-2.15,2.21-1.43,4.14-3.27,5.79-5.53l13.65,10.01ZM621.62,120.83c.08-3.29-1-6.11-3.25-8.45-2.25-2.34-5.16-3.51-8.71-3.51-2.17,0-4.08.35-5.72,1.04-1.65.69-3.05,1.58-4.22,2.67-1.17,1.08-2.08,2.34-2.73,3.77-.65,1.43-1.02,2.93-1.1,4.48h25.74Z"/>
    <path class="st1" d="M650.34,96.39h19.5v10.14h.26c2.08-3.9,4.55-6.83,7.41-8.77,2.86-1.95,6.46-2.93,10.79-2.93,1.12,0,2.25.04,3.38.13,1.12.09,2.17.26,3.12.52v17.81c-1.39-.43-2.75-.76-4.1-.98-1.34-.22-2.75-.33-4.22-.33-3.73,0-6.67.52-8.84,1.56-2.17,1.04-3.83,2.49-5,4.35-1.17,1.86-1.93,4.1-2.28,6.69-.35,2.6-.52,5.46-.52,8.58v26.39h-19.5v-63.18Z"/>
    <path class="st1" d="M720.93,85.47h-26.26v-17.94h72.8v17.94h-26.26v74.1h-20.28v-74.1Z"/>
    <path class="st1" d="M760.71,96.39h19.5v10.14h.26c2.08-3.9,4.55-6.83,7.41-8.77,2.86-1.95,6.46-2.93,10.79-2.93,1.12,0,2.25.04,3.38.13,1.13.09,2.17.26,3.12.52v17.81c-1.39-.43-2.75-.76-4.09-.98-1.34-.22-2.75-.33-4.23-.33-3.73,0-6.67.52-8.84,1.56-2.17,1.04-3.83,2.49-5,4.35-1.17,1.86-1.93,4.1-2.27,6.69-.35,2.6-.52,5.46-.52,8.58v26.39h-19.5v-63.18Z"/>
    <path class="st1" d="M850.67,151.64h-.26c-2.17,3.38-5.05,5.81-8.65,7.28-3.6,1.47-7.39,2.21-11.38,2.21-2.95,0-5.78-.41-8.51-1.23-2.73-.82-5.13-2.06-7.21-3.71-2.08-1.65-3.73-3.68-4.94-6.11-1.21-2.43-1.82-5.24-1.82-8.45,0-3.64.67-6.72,2.01-9.23,1.34-2.51,3.16-4.59,5.46-6.24,2.3-1.65,4.92-2.92,7.87-3.83,2.95-.91,6-1.58,9.17-2.01,3.16-.43,6.33-.69,9.49-.78,3.16-.09,6.09-.13,8.77-.13,0-3.47-1.23-6.22-3.71-8.25-2.47-2.04-5.39-3.06-8.77-3.06s-6.13.67-8.78,2.02c-2.64,1.34-5,3.19-7.08,5.52l-10.4-10.66c3.64-3.38,7.89-5.92,12.74-7.6,4.85-1.69,9.88-2.54,15.08-2.54,5.72,0,10.42.72,14.11,2.15,3.68,1.43,6.63,3.53,8.84,6.31,2.21,2.77,3.75,6.17,4.62,10.21.87,4.03,1.3,8.69,1.3,13.98v32.11h-17.94v-7.93ZM845.86,131.88c-1.47,0-3.32.06-5.53.19s-4.33.5-6.37,1.1c-2.04.61-3.77,1.52-5.2,2.73-1.43,1.21-2.14,2.9-2.14,5.07,0,2.34,1,4.07,2.99,5.2,1.99,1.13,4.07,1.69,6.24,1.69,1.91,0,3.75-.26,5.52-.78,1.78-.52,3.36-1.26,4.75-2.21,1.39-.95,2.49-2.17,3.32-3.64.82-1.47,1.23-3.21,1.23-5.2v-4.16h-4.81Z"/>
    <path class="st1" d="M878.23,96.39h18.72v8.58h.26c.61-1.21,1.47-2.43,2.6-3.64,1.12-1.21,2.47-2.29,4.03-3.25,1.56-.95,3.34-1.73,5.33-2.34,1.99-.61,4.16-.91,6.5-.91,4.94,0,8.93.76,11.96,2.28,3.03,1.52,5.4,3.62,7.08,6.3,1.69,2.69,2.84,5.85,3.45,9.49.61,3.64.91,7.58.91,11.83v34.84h-19.5v-30.94c0-1.82-.07-3.71-.2-5.66-.13-1.95-.52-3.75-1.17-5.4-.65-1.65-1.65-2.99-2.99-4.03-1.34-1.04-3.27-1.56-5.79-1.56s-4.55.46-6.11,1.37c-1.56.91-2.75,2.12-3.58,3.64-.83,1.52-1.37,3.23-1.62,5.14-.26,1.91-.39,3.9-.39,5.98v31.46h-19.5v-63.18Z"/>
    <path class="st1" d="M986,114.98c-2.86-3.55-6.63-5.33-11.31-5.33-1.65,0-3.25.39-4.81,1.17-1.56.78-2.34,2.12-2.34,4.03,0,1.56.8,2.71,2.4,3.45,1.6.74,3.64,1.39,6.11,1.95,2.47.56,5.11,1.17,7.93,1.82,2.82.65,5.46,1.67,7.93,3.05,2.47,1.39,4.5,3.27,6.11,5.66,1.6,2.38,2.41,5.57,2.41,9.55s-.89,7.43-2.67,10.08c-1.78,2.64-4.05,4.77-6.83,6.37-2.77,1.6-5.89,2.73-9.36,3.38-3.47.65-6.89.98-10.27.98-4.42,0-8.88-.63-13.39-1.89-4.51-1.25-8.32-3.49-11.44-6.69l11.83-13.13c1.82,2.25,3.83,3.96,6.04,5.13s4.79,1.76,7.74,1.76c2.25,0,4.29-.33,6.11-.98,1.82-.65,2.73-1.84,2.73-3.58,0-1.65-.8-2.88-2.41-3.71-1.6-.82-3.64-1.52-6.11-2.08-2.47-.56-5.12-1.17-7.93-1.82-2.82-.65-5.46-1.62-7.93-2.92-2.47-1.3-4.51-3.14-6.11-5.53-1.6-2.38-2.4-5.57-2.4-9.55,0-3.73.76-6.93,2.27-9.62,1.52-2.69,3.51-4.9,5.98-6.63,2.47-1.73,5.31-3.01,8.51-3.83,3.21-.82,6.46-1.24,9.75-1.24,4.16,0,8.36.61,12.61,1.82,4.25,1.21,7.84,3.38,10.79,6.5l-11.96,11.83Z"/>
    <path class="st1" d="M1009.66,96.39h17.94v8.32h.26c.78-1.13,1.8-2.27,3.05-3.45,1.25-1.17,2.73-2.23,4.42-3.19,1.69-.95,3.53-1.73,5.53-2.34,1.99-.61,4.12-.91,6.37-.91,4.68,0,8.93.8,12.74,2.41,3.81,1.6,7.08,3.86,9.82,6.76,2.73,2.9,4.83,6.35,6.3,10.33,1.47,3.99,2.21,8.36,2.21,13.13,0,4.42-.67,8.65-2.01,12.67-1.34,4.03-3.25,7.6-5.72,10.73-2.47,3.12-5.48,5.61-9.04,7.48-3.55,1.86-7.58,2.79-12.09,2.79-4.08,0-7.87-.63-11.38-1.89-3.51-1.25-6.39-3.4-8.65-6.43h-.26v36.4h-19.5v-92.82ZM1027.6,127.98c0,4.77,1.37,8.62,4.1,11.57,2.73,2.95,6.56,4.42,11.5,4.42s8.77-1.47,11.5-4.42c2.73-2.95,4.09-6.8,4.09-11.57s-1.37-8.62-4.09-11.57c-2.73-2.95-6.57-4.42-11.5-4.42s-8.78,1.47-11.5,4.42c-2.73,2.95-4.1,6.8-4.1,11.57Z"/>
    <path class="st1" d="M1126.79,151.64h-.26c-2.17,3.38-5.05,5.81-8.65,7.28-3.6,1.47-7.39,2.21-11.38,2.21-2.95,0-5.78-.41-8.51-1.23-2.73-.82-5.13-2.06-7.21-3.71-2.08-1.65-3.73-3.68-4.94-6.11-1.21-2.43-1.82-5.24-1.82-8.45,0-3.64.67-6.72,2.01-9.23,1.34-2.51,3.16-4.59,5.46-6.24,2.3-1.65,4.92-2.92,7.87-3.83,2.95-.91,6-1.58,9.17-2.01,3.16-.43,6.33-.69,9.49-.78,3.16-.09,6.09-.13,8.77-.13,0-3.47-1.23-6.22-3.71-8.25-2.47-2.04-5.39-3.06-8.77-3.06s-6.13.67-8.78,2.02c-2.64,1.34-5,3.19-7.08,5.52l-10.4-10.66c3.64-3.38,7.89-5.92,12.74-7.6,4.85-1.69,9.88-2.54,15.08-2.54,5.72,0,10.42.72,14.11,2.15,3.68,1.43,6.63,3.53,8.84,6.31,2.21,2.77,3.75,6.17,4.62,10.21.87,4.03,1.3,8.69,1.3,13.98v32.11h-17.94v-7.93ZM1121.98,131.88c-1.47,0-3.32.06-5.53.19s-4.33.5-6.37,1.1c-2.04.61-3.77,1.52-5.2,2.73-1.43,1.21-2.14,2.9-2.14,5.07,0,2.34,1,4.07,2.99,5.2,1.99,1.13,4.07,1.69,6.24,1.69,1.91,0,3.75-.26,5.52-.78,1.78-.52,3.36-1.26,4.75-2.21,1.39-.95,2.49-2.17,3.32-3.64.82-1.47,1.23-3.21,1.23-5.2v-4.16h-4.81Z"/>
    <path class="st1" d="M1154.34,96.39h19.5v10.14h.26c2.08-3.9,4.55-6.83,7.41-8.77,2.86-1.95,6.46-2.93,10.79-2.93,1.12,0,2.25.04,3.38.13,1.13.09,2.17.26,3.12.52v17.81c-1.39-.43-2.75-.76-4.09-.98-1.34-.22-2.75-.33-4.23-.33-3.73,0-6.67.52-8.84,1.56-2.17,1.04-3.83,2.49-5,4.35-1.17,1.86-1.93,4.1-2.27,6.69-.35,2.6-.52,5.46-.52,8.58v26.39h-19.5v-63.18Z"/>
    <path class="st1" d="M1262.12,148.65c-3.12,3.99-7.06,7.06-11.83,9.23-4.77,2.17-9.71,3.25-14.82,3.25s-9.42-.78-13.71-2.34c-4.29-1.56-8.02-3.79-11.18-6.7-3.16-2.9-5.65-6.39-7.47-10.46-1.82-4.07-2.73-8.62-2.73-13.65s.91-9.58,2.73-13.65c1.82-4.07,4.31-7.56,7.47-10.46,3.16-2.9,6.89-5.13,11.18-6.69s8.86-2.34,13.71-2.34c4.5,0,8.6.78,12.29,2.34,3.68,1.56,6.8,3.79,9.36,6.69,2.56,2.9,4.53,6.39,5.92,10.46,1.39,4.07,2.08,8.62,2.08,13.65v6.11h-45.24c.78,3.73,2.47,6.69,5.07,8.9s5.81,3.32,9.62,3.32c3.21,0,5.92-.72,8.12-2.15,2.21-1.43,4.14-3.27,5.79-5.53l13.65,10.01ZM1245.61,120.83c.08-3.29-1-6.11-3.25-8.45-2.25-2.34-5.16-3.51-8.71-3.51-2.17,0-4.07.35-5.72,1.04-1.65.69-3.06,1.58-4.23,2.67-1.17,1.08-2.08,2.34-2.73,3.77-.65,1.43-1.02,2.93-1.11,4.48h25.74Z"/>
    <path class="st1" d="M1274.34,96.39h18.72v8.58h.26c.61-1.21,1.47-2.43,2.6-3.64,1.12-1.21,2.47-2.29,4.03-3.25,1.56-.95,3.34-1.73,5.33-2.34,1.99-.61,4.16-.91,6.5-.91,4.94,0,8.93.76,11.96,2.28,3.03,1.52,5.4,3.62,7.08,6.3,1.69,2.69,2.84,5.85,3.45,9.49.61,3.64.91,7.58.91,11.83v34.84h-19.5v-30.94c0-1.82-.07-3.71-.2-5.66-.13-1.95-.52-3.75-1.17-5.4-.65-1.65-1.65-2.99-2.99-4.03-1.34-1.04-3.27-1.56-5.79-1.56s-4.55.46-6.11,1.37c-1.56.91-2.75,2.12-3.58,3.64-.83,1.52-1.37,3.23-1.62,5.14-.26,1.91-.39,3.9-.39,5.98v31.46h-19.5v-63.18Z"/>
    <path class="st1" d="M1389.12,116.8c-.96-1.39-2.3-2.54-4.03-3.44-1.73-.91-3.6-1.37-5.59-1.37-4.94,0-8.78,1.47-11.5,4.42-2.73,2.95-4.1,6.8-4.1,11.57s1.37,8.62,4.1,11.57c2.73,2.95,6.56,4.42,11.5,4.42,2.17,0,4.03-.48,5.59-1.43,1.56-.95,2.9-2.08,4.03-3.38l12.87,13.52c-3.03,3.12-6.61,5.31-10.72,6.56-4.12,1.26-8.04,1.89-11.76,1.89-4.85,0-9.42-.78-13.71-2.34-4.29-1.56-8.02-3.79-11.18-6.7-3.16-2.9-5.65-6.39-7.47-10.46-1.82-4.07-2.73-8.62-2.73-13.65s.91-9.58,2.73-13.65c1.82-4.07,4.31-7.56,7.47-10.46,3.16-2.9,6.89-5.13,11.18-6.69s8.86-2.34,13.71-2.34c3.72,0,7.65.63,11.76,1.89,4.12,1.26,7.69,3.44,10.72,6.56l-12.87,13.52Z"/>
    <path class="st1" d="M1450.61,169.84c-1.3,3.38-2.56,6.37-3.77,8.97-1.21,2.6-2.75,4.79-4.62,6.56-1.86,1.77-4.22,3.12-7.08,4.03-2.86.91-6.63,1.37-11.31,1.37-5.03,0-9.88-.78-14.56-2.34l2.6-15.99c2.95,1.3,5.98,1.95,9.1,1.95,2.17,0,3.94-.24,5.33-.71,1.39-.48,2.54-1.17,3.45-2.08.91-.91,1.67-2.02,2.28-3.31.6-1.3,1.25-2.82,1.95-4.55l1.43-3.64-27.69-63.7h21.06l16.25,41.73h.26l13.91-41.73h20.02l-28.6,73.45Z"/>
  </g>
  <path class="st0" d="M107.92,82.5c18.91.04,34.2,15.41,34.16,34.31-.04,18.91-15.41,34.2-34.31,34.16-18.88-.04-34.16-15.36-34.16-34.23,0-18.91,15.33-34.23,34.23-34.23.03,0,.05,0,.08,0ZM106.63,215.55h-7.1c-6.73-.01-12.18-5.46-12.2-12.18v-12.48c-6.97-1.56-13.68-4.1-19.94-7.54l-8.33,8.33c-4.77,4.75-12.48,4.75-17.25,0l-10.07-10.15c-4.74-4.77-4.74-12.47,0-17.25l7.6-7.6c-3.98-6.39-6.98-13.33-8.91-20.6h-10.41c-6.73-.01-12.18-5.46-12.2-12.18v-14.36c-.01-6.75,5.45-12.23,12.2-12.24h10.21c1.89-7.34,4.88-14.36,8.85-20.82l-7.34-7.34c-4.72-4.77-4.72-12.46,0-17.23l10.15-10.15c4.77-4.75,12.48-4.75,17.25,0l7.98,7.98c6.33-3.52,13.13-6.12,20.2-7.72v-11.96c.03-6.73,5.5-12.16,12.22-12.16h14.34c6.48.04,11.8,5.13,12.12,11.6v40.83c-5.39-1.96-11.08-2.96-16.81-2.95h-5.08c-27.09-.55-49.5,20.98-50.05,48.07-.55,27.09,20.98,49.5,48.07,50.05.66.01,1.32.01,1.98,0h5.08c5.73,0,11.42-.99,16.81-2.95v41.37c-.33,6.49-5.68,11.59-12.18,11.6h-7.18Z"/>
  <g>
    <path class="st0" d="M189.87,193.02v-17.39h-47.55c4.13-3.73,7.9-7.85,11.25-12.3h42.43c3.38.01,6.12,2.74,6.14,6.12v23.57c9.31,3.39,14.12,13.68,10.73,23-3.39,9.31-13.68,14.12-23,10.73-9.31-3.39-14.12-13.68-10.73-23,1.81-4.99,5.74-8.92,10.73-10.73Z"/>
    <path class="st0" d="M185.58,66.82h-27.22c-2.64-4.34-5.65-8.45-8.99-12.28h30.09v-13.96c-9.35-3.3-14.25-13.54-10.96-22.89,3.3-9.35,13.54-14.25,22.89-10.96,9.35,3.3,14.25,13.54,10.96,22.89-1.77,5.01-5.66,8.98-10.63,10.84v20.24c0,3.38-2.74,6.12-6.12,6.12,0,0-.01,0-.02,0Z"/>
    <path class="st0" d="M252.82,35.5c-.03-9.91-8.08-17.92-17.99-17.9-9.91.03-17.92,8.08-17.9,17.99.02,7.08,4.2,13.49,10.67,16.36v35.89h-60.04c1.14,4.03,1.99,8.13,2.53,12.28h63.62c3.38-.02,6.11-2.76,6.12-6.14v-41.19c7.7-2.22,13-9.27,12.98-17.29Z"/>
    <path class="st0" d="M252.52,135.05c.1-9.91-7.84-18.03-17.75-18.13-7.69-.08-14.57,4.74-17.12,11.99h-48.57c-.84,4.17-2,8.27-3.47,12.26h52.04c3.29,9.35,13.53,14.26,22.88,10.98,7.24-2.55,12.06-9.42,11.99-17.1Z"/>
  </g>
</svg>