<?xml version="1.0" encoding="UTF-8"?>
<svg id="Layer_1" data-name="Layer 1" xmlns="http://www.w3.org/2000/svg" viewBox="0 0 221.22 61.41">
  <defs>
    <style>
      .cls-1 {
        fill: none;
      }

      .cls-2 {
        fill: #1bb680;
      }

      .cls-3 {
        fill: #fff;
      }
    </style>
  </defs>
  <g>
    <path class="cls-3" d="M45.77,30.66c0,1.45-.19,2.75-.56,3.89-.37,1.14-.87,2.15-1.5,3.02-.63.87-1.36,1.62-2.18,2.24-.82.62-1.69,1.13-2.59,1.53-.9.4-1.81.69-2.73.87-.92.18-1.78.27-2.59.27l13.71,11.47h-10.15l-13.68-11.47h-4.72v-6.36h14.85c.82-.06,1.58-.23,2.26-.5s1.27-.63,1.77-1.09c.5-.46.88-1.01,1.15-1.65.27-.64.4-1.38.4-2.21v-4.01c0-.36-.05-.63-.14-.82-.09-.19-.21-.33-.35-.42-.14-.09-.29-.14-.45-.16-.16-.02-.31-.02-.44-.02h-21.66v28.71h-6.56v-31.86c0-.44.08-.86.25-1.25.17-.39.4-.73.69-1.03.29-.29.64-.52,1.05-.68.4-.16.84-.24,1.31-.24h24.92c1.46,0,2.7.26,3.71.77,1.01.51,1.83,1.16,2.46,1.93.63.77,1.09,1.61,1.36,2.51.28.9.42,1.74.42,2.52v4.06Z"/>
    <path class="cls-3" d="M137.35,39.27c0,2.14-.38,4.1-1.15,5.89-.77,1.79-1.82,3.34-3.17,4.63s-2.95,2.31-4.8,3.04c-1.85.73-3.86,1.1-6.03,1.1h-17.72c-.47,0-.91-.08-1.31-.24-.4-.16-.75-.39-1.05-.67-.29-.28-.53-.62-.69-1.01s-.25-.81-.25-1.27v-28.66c0-.44.08-.86.25-1.25s.4-.73.69-1.03c.29-.29.64-.52,1.05-.68.4-.16.84-.24,1.31-.24h17.72c2.17,0,4.18.37,6.03,1.1s3.45,1.75,4.8,3.04c1.35,1.3,2.4,2.84,3.17,4.65s1.15,3.76,1.15,5.88v5.72ZM130.79,33.55c0-1.24-.21-2.37-.62-3.4s-1-1.9-1.75-2.63c-.76-.73-1.66-1.29-2.71-1.69-1.05-.4-2.22-.6-3.5-.6h-14.47v22.35h14.47c1.28,0,2.45-.2,3.5-.6s1.96-.96,2.71-1.69c.76-.73,1.34-1.6,1.75-2.62s.62-2.16.62-3.41v-5.72Z"/>
    <path class="cls-3" d="M177.24,53.94h-6.56v-8.61h-23.08v8.61h-6.56v-17.53c0-2.56.45-4.91,1.36-7.07.91-2.15,2.17-4,3.79-5.55,1.62-1.55,3.53-2.75,5.73-3.62,2.21-.86,4.61-1.3,7.22-1.3h14.79c.45,0,.88.08,1.29.24.4.16.76.39,1.06.68.3.29.54.64.71,1.03s.25.81.25,1.25v31.86ZM147.6,38.98h23.08v-13.74h-11.54c-.2,0-.63.03-1.27.09-.65.06-1.4.2-2.25.43-.85.23-1.75.58-2.69,1.05-.94.47-1.81,1.12-2.6,1.96s-1.44,1.87-1.96,3.12c-.51,1.25-.77,2.76-.77,4.54v2.57Z"/>
    <path class="cls-3" d="M216.91,30.66c0,1.45-.19,2.75-.56,3.89s-.87,2.15-1.5,3.02-1.36,1.62-2.18,2.24c-.83.62-1.69,1.13-2.59,1.53-.9.4-1.81.69-2.73.87-.92.18-1.78.27-2.59.27l13.71,11.47h-10.15l-13.68-11.47h-4.72v-6.36h14.85c.82-.06,1.58-.23,2.26-.5s1.27-.63,1.77-1.09.88-1.01,1.15-1.65c.27-.64.4-1.38.4-2.21v-4.01c0-.36-.05-.63-.14-.82-.09-.19-.21-.33-.35-.42-.14-.09-.29-.14-.45-.16-.16-.02-.31-.02-.44-.02h-21.66v28.71h-6.56v-31.86c0-.44.08-.86.25-1.25s.4-.73.69-1.03c.29-.29.64-.52,1.05-.68s.84-.24,1.31-.24h24.92c1.46,0,2.7.26,3.71.77,1.01.51,1.83,1.16,2.46,1.93.63.77,1.09,1.61,1.36,2.51.28.9.42,1.74.42,2.52v4.06Z"/>
  </g>
  <g>
    <path class="cls-1" d="M93.7,26.87c0-12.67-11.65-22.67-24.8-19.85-7.43,1.6-13.49,7.48-15.25,14.88-2.03,8.48,1.31,16.36,7.29,21.01l.75-1.98c-4.91-4.09-7.74-10.6-6.31-17.75,1.41-7.05,7.04-12.81,14.09-14.28,11.84-2.46,22.31,6.55,22.31,17.97,0,5.67-2.63,10.68-6.68,14.05l.74,1.98c4.79-3.72,7.88-9.52,7.88-16.04Z"/>
    <path class="cls-1" d="M69.99,13.23c-4.84,1.14-8.81,4.96-10.12,9.75-1.44,5.28.18,10.25,3.44,13.62l.79-2.09c-2.29-2.77-3.44-6.51-2.45-10.57,1.07-4.36,4.62-7.9,9.01-8.86,7.84-1.72,14.81,4.24,14.81,11.79,0,2.91-1.08,5.55-2.79,7.63l.78,2.09c2.44-2.53,3.96-5.95,3.96-9.73,0-8.84-8.22-15.8-17.42-13.64Z"/>
    <path class="cls-1" d="M73.22,19.13c-2.45.05-4.67,1.53-6.09,3.52-1.82,2.54-1.71,4.71-1.07,6.64l3.24-8.6h8.19s3.21,8.56,3.21,8.56c.25-.76.42-1.55.42-2.39,0-4.32-3.56-7.83-7.9-7.74Z"/>
    <path class="cls-2" d="M60.93,42.9c-5.98-4.65-9.32-12.53-7.29-21.01,1.77-7.39,7.82-13.28,15.25-14.88,13.15-2.82,24.8,7.18,24.8,19.85,0,6.52-3.1,12.31-7.88,16.04l1.05,2.79.54,1.44c7.6-5.28,12.12-14.7,10.21-24.97-1.81-9.71-9.58-17.59-19.28-19.49-15.77-3.09-29.63,8.96-29.63,24.19,0,8.39,4.22,15.81,10.64,20.27l.54-1.44,1.05-2.79Z"/>
    <path class="cls-2" d="M59.34,26.87c0-8.84,8.22-15.8,17.42-13.64,4.84,1.14,8.81,4.96,10.12,9.75,1.44,5.28-.17,10.24-3.43,13.61l1.62,4.33c4.91-4.09,7.73-10.59,6.31-17.74-1.4-7.06-7.04-12.81-14.08-14.28-11.84-2.47-22.31,6.55-22.31,17.97,0,5.67,2.64,10.68,6.68,14.06l1.63-4.32c-2.44-2.53-3.96-5.95-3.96-9.74Z"/>
    <path class="cls-2" d="M65.63,26.87c0-4.3,3.53-7.8,7.84-7.74,2.44.03,4.65,1.5,6.09,3.46,1.88,2.57,1.77,4.73,1.13,6.66l1.97,5.25c2.28-2.77,3.43-6.51,2.43-10.57-1.07-4.36-4.62-7.9-9.01-8.86-7.84-1.72-14.81,4.24-14.81,11.79,0,2.92,1.08,5.56,2.81,7.65l1.97-5.23c-.25-.77-.43-1.57-.43-2.42Z"/>
  </g>
  <path class="cls-3" d="M72.88,23.16l-11.63,30.14c-.14.35.12.73.5.73h23.25c.38,0,.64-.38.5-.73l-11.63-30.14c-.18-.46-.82-.46-1,0Z"/>
</svg>