<?xml version="1.0" encoding="UTF-8"?>
<svg xmlns="http://www.w3.org/2000/svg" version="1.1" viewBox="0 0 221.22 61.41">
  <!-- Generator: Adobe Illustrator 30.1.0, SVG Export Plug-In . SVG Version: 2.1.1 Build 136)  -->
  <defs>
    <style>
      .st0 {
        fill: none;
      }

      .st1 {
        font-family: Audiowide-Regular, Audiowide;
        font-size: 50.07px;
      }

      .st1, .st2 {
        fill: #fff;
      }

      .st3 {
        fill: #1bb680;
      }

      .st4 {
        fill: #123a60;
      }

      .st5 {
        letter-spacing: -.08em;
      }

      .st6 {
        letter-spacing: -.04em;
      }

      .st7 {
        letter-spacing: .1em;
      }
    </style>
  </defs>
  <rect class="st4" x="-9" y="-9" width="239.22" height="79.41"/>
  <g id="Layer_1">
    <text class="st1" transform="translate(5.64 53.94) scale(1.03 1)"><tspan class="st7" x="0" y="0" xml:space="preserve">R  </tspan><tspan class="st6" x="89.01" y="0">D</tspan><tspan class="st5" x="128.23" y="0">AR</tspan></text>
    <g>
      <path class="st0" d="M93.7,26.87c0-12.67-11.65-22.67-24.8-19.85-7.43,1.6-13.49,7.48-15.25,14.88-2.03,8.48,1.31,16.36,7.29,21.01l.75-1.98c-4.91-4.09-7.74-10.6-6.31-17.75,1.41-7.05,7.04-12.81,14.09-14.28,11.84-2.46,22.31,6.55,22.31,17.97,0,5.67-2.63,10.68-6.68,14.05l.74,1.98c4.79-3.72,7.88-9.52,7.88-16.04Z"/>
      <path class="st0" d="M69.99,13.23c-4.84,1.14-8.81,4.96-10.12,9.75-1.44,5.28.18,10.25,3.44,13.62l.79-2.09c-2.29-2.77-3.44-6.51-2.45-10.57,1.07-4.36,4.62-7.9,9.01-8.86,7.84-1.72,14.81,4.24,14.81,11.79,0,2.91-1.08,5.55-2.79,7.63l.78,2.09c2.44-2.53,3.96-5.95,3.96-9.73,0-8.84-8.22-15.8-17.42-13.64Z"/>
      <path class="st0" d="M73.22,19.13c-2.45.05-4.67,1.53-6.09,3.52-1.82,2.54-1.71,4.71-1.07,6.64l3.24-8.6h8.19s3.21,8.56,3.21,8.56c.25-.76.42-1.55.42-2.39,0-4.32-3.56-7.83-7.9-7.74Z"/>
      <path class="st3" d="M60.93,42.9c-5.98-4.65-9.32-12.53-7.29-21.01,1.77-7.39,7.82-13.28,15.25-14.88,13.15-2.82,24.8,7.18,24.8,19.85,0,6.52-3.1,12.31-7.88,16.04l1.05,2.79.54,1.44c7.6-5.28,12.12-14.7,10.21-24.97-1.81-9.71-9.58-17.59-19.28-19.49-15.77-3.09-29.63,8.96-29.63,24.19,0,8.39,4.22,15.81,10.64,20.27l.54-1.44,1.05-2.79Z"/>
      <path class="st3" d="M59.34,26.87c0-8.84,8.22-15.8,17.42-13.64,4.84,1.14,8.81,4.96,10.12,9.75,1.44,5.28-.17,10.24-3.43,13.61l1.62,4.33c4.91-4.09,7.73-10.59,6.31-17.74-1.4-7.06-7.04-12.81-14.08-14.28-11.84-2.47-22.31,6.55-22.31,17.97,0,5.67,2.64,10.68,6.68,14.06l1.63-4.32c-2.44-2.53-3.96-5.95-3.96-9.74Z"/>
      <path class="st3" d="M65.63,26.87c0-4.3,3.53-7.8,7.84-7.74,2.44.03,4.65,1.5,6.09,3.46,1.88,2.57,1.77,4.73,1.13,6.66l1.97,5.25c2.28-2.77,3.43-6.51,2.43-10.57-1.07-4.36-4.62-7.9-9.01-8.86-7.84-1.72-14.81,4.24-14.81,11.79,0,2.92,1.08,5.56,2.81,7.65l1.97-5.23c-.25-.77-.43-1.57-.43-2.42Z"/>
    </g>
    <path class="st2" d="M72.88,23.16l-11.63,30.14c-.14.35.12.73.5.73h23.25c.38,0,.64-.38.5-.73l-11.63-30.14c-.18-.46-.82-.46-1,0Z"/>
  </g>
</svg>